<svg xmlns="http://www.w3.org/2000/svg" data-v-16bc8e0b="" version="1.0" width="100%" height="100%" viewBox="0 0 740.000000 850.000000" preserveAspectRatio="xMidYMid meet" color-interpolation-filters="sRGB" class="el-tooltip" style="margin: auto;">  <g data-v-16bc8e0b="" fill="#00a5e6" transform="translate(58.02406311035156,95)"><g transform="translate(0,0)"><rect fill="#00a5e6" fill-opacity="1" stroke="#00a5e6" rx="600" ry="600" x="0" y="0" width="600" height="600"/> <svg filter="url(#colors6892484883)" x="150.403542115161116" y="70.2856121100276" width="290.192915769677768" height="450.4287757799448"><svg xmlns="http://www.w3.org/2000/svg" viewBox="0 0 47.99 74.68"><defs><linearGradient id="ae00e30a0-5d13-40d7-8cf2-6ede8295fb48" x1="-550.7" y1="682.91" x2="-550.7" y2="643.23" gradientTransform="matrix(1.88 0 0 1.88 1060.36 -1210.42)" gradientUnits="userSpaceOnUse"><stop offset="0" stop-color="#00a5e6"/><stop offset="1" stop-color="#0cf"/></linearGradient></defs><g><path d="M24 0c-1.13 17.8 10.93 25.21 17 32.91 4.22 5.37 7 10.85 7 17.77a24 24 0 1 1-31.26-22.87c-5.94 4.57-8.63 10.26-8.87 15-.35 6.76 3.88 12.69 11 12.69a10.86 10.86 0 0 0 10.88-10.81c0-9.57-6.58-15.28-8.34-24.78C20.24 13.59 21.12 6.92 24 0zm2.73 23.19c1.71 4.36 5.8 9.16 8.91 14.33A23 23 0 0 1 39 51.61c-1.26 12.49-14.71 18-25.17 11.81a19.81 19.81 0 0 1-9.5-14.73 19.77 19.77 0 1 0 39.43 2c0-5.95-2.49-10.59-6.08-15.16-3.4-4.31-7.6-7.81-10.96-12.34z" fill-rule="evenodd" fill="url(#ae00e30a0-5d13-40d7-8cf2-6ede8295fb48)"/></g></svg></svg> <defs><filter id="colors6892484883"><feColorMatrix type="matrix" values="0 0 0 0 0.99609375  0 0 0 0 0.99609375  0 0 0 0 0.99609375  0 0 0 1 0"/></filter></defs></g> </g></svg>