<svg data-v-16bc8e0b="" version="1.0" xmlns="http://www.w3.org/2000/svg" width="100%" height="100%" viewBox="0 0 159.000000 205.000000" preserveAspectRatio="xMidYMid meet" color-interpolation-filters="sRGB" class="el-tooltip" style="margin: auto;">  <g data-v-16bc8e0b="" fill="#00a5e6" transform="translate(27.73999786376953,35.922637939453125)"><g transform="translate(5.575275421142578,0)"><rect fill="#fff" fill-opacity="0" stroke="#fff" rx="46.68472598458045" ry="46.68472598458045" x="0" y="0" width="93.3694519691609" height="93.3694519691609"></rect> <svg x="23.970338094608053" y="11.337560166219319" width="45.4287757799448" height="70.69433163672227"><svg xmlns="http://www.w3.org/2000/svg" viewBox="0 0 47.99 74.68"><defs><linearGradient id="ae00e30a0-5d13-40d7-8cf2-6ede8295fb48" x1="-550.7" y1="682.91" x2="-550.7" y2="643.23" gradientTransform="matrix(1.88 0 0 1.88 1060.36 -1210.42)" gradientUnits="userSpaceOnUse"><stop offset="0" stop-color="#fff"></stop><stop offset="1" stop-color="#fff"></stop></linearGradient></defs><g><path d="M24 0c-1.13 17.8 10.93 25.21 17 32.91 4.22 5.37 7 10.85 7 17.77a24 24 0 1 1-31.26-22.87c-5.94 4.57-8.63 10.26-8.87 15-.35 6.76 3.88 12.69 11 12.69a10.86 10.86 0 0 0 10.88-10.81c0-9.57-6.58-15.28-8.34-24.78C20.24 13.59 21.12 6.92 24 0zm2.73 23.19c1.71 4.36 5.8 9.16 8.91 14.33A23 23 0 0 1 39 51.61c-1.26 12.49-14.71 18-25.17 11.81a19.81 19.81 0 0 1-9.5-14.73 19.77 19.77 0 1 0 39.43 2c0-5.95-2.49-10.59-6.08-15.16-3.4-4.31-7.6-7.81-10.96-12.34z" fill-rule="evenodd" fill="url(#ae00e30a0-5d13-40d7-8cf2-6ede8295fb48)"></path></g></svg></svg> <!----></g> <g transform="translate(0,100.36945343017578)"><g fill="#fff" transform="translate(3.210002899169922,0)"><g><path transform="translate(-0.830078125,19.82421875)" d="M5.71-12.84L5.71-12.84L0.83 0.66L4.54 0.66L10.40-16.16L1.66-16.16L1.66-12.84L5.71-12.84L5.71-12.84ZM14.36-12.26L14.36-12.26L14.36-19.68L10.74-19.68L10.74-1.61L7.57-1.61L7.57 1.64L14.36 1.64L14.36-6.25L19.78 0.66L24.17 0.66L14.36-12.26L14.36-12.26ZM16.65-10.01L16.65-10.01L20.51-10.01L23.54-17.92L19.73-17.92L16.65-10.01L16.65-10.01ZM31.15-17.72L31.15-17.72L26.76-19.82L26.76-15.82L31.15-13.53L31.15-17.72L31.15-17.72ZM28.08-6.98L28.08-6.98L25.88 1.64L29.35 1.64L31.69-6.98L28.08-6.98L28.08-6.98ZM31.01-11.91L31.01-11.91L26.12-14.21L26.12-10.11L31.01-7.62L31.01-11.91L31.01-11.91ZM48.63-15.92L48.63-15.92L48.63-18.65L42.33-18.65L41.80-19.68L37.89-19.68L38.43-18.65L32.13-18.65L32.13-15.92L48.63-15.92L48.63-15.92ZM39.36-13.82L39.36-13.82L38.48-15.19L34.42-15.19L35.25-13.82L32.32-13.82L32.32 1.64L35.64 1.64L35.64-11.08L45.12-11.08L45.12-1.03L44.38-1.03L44.38 1.64L48.44 1.64L48.44-13.82L45.90-13.82L46.73-15.23L42.87-15.23L41.94-13.82L39.36-13.82L39.36-13.82ZM43.80-5.91L43.80-5.91L41.94-5.91L41.94-6.84L44.38-6.84L44.38-9.57L41.94-9.57L41.94-10.60L38.62-10.60L38.62-9.57L36.28-9.57L36.28-6.84L38.62-6.84L38.62-5.91L36.77-5.91L36.77 0.02L43.80 0.02L43.80-5.91L43.80-5.91ZM41.06-2.44L41.06-2.44L39.50-2.44L39.50-3.42L41.06-3.42L41.06-2.44L41.06-2.44ZM67.33-6.84L67.33-6.84L67.19-9.33L72.27-10.45L72.27-13.87L67.04-12.74L66.99-14.45L70.12-15.04L70.12-18.26L66.89-17.68L66.89-19.68L63.38-19.68L63.38-17.14L59.67-16.55L59.67-13.23L63.48-13.87L63.57-11.96L59.52-11.13L59.52-7.67L63.67-8.59L63.92-4.44L59.52-1.76L59.52 2.17L65.77-1.76L70.36 1.64L73.00 1.64L74.27-3.76L70.90-3.76L70.56-2.54L68.85-3.86L72.85-6.30L72.85-10.21L67.33-6.84L67.33-6.84ZM71.04-15.28L71.04-15.28L74.17-15.28L73.24-19.38L70.12-19.38L71.04-15.28L71.04-15.28ZM50.54-10.06L50.54-10.06L52.78-10.06L52.78-9.28L51.22-9.28L51.22-5.96L52.78-5.96L52.78-2.44L51.66-1.81L51.66 1.98L58.69-1.51L58.69-5.37L56.40-4.10L56.40-5.96L58.79-5.96L58.79-9.28L56.40-9.28L56.40-10.06L58.40-10.06L58.40-13.38L55.08-13.38L55.27-14.11L58.94-14.11L58.94-17.43L56.05-17.43L56.69-19.68L53.03-19.68L50.54-10.06L50.54-10.06ZM77.15 1.64L77.15 1.64L97.75 1.64L98.93-3.08L95.31-3.08L94.92-1.56L80.76-1.56L80.76-4.44L91.31-4.44L91.31-13.33L77.15-13.33L77.15 1.64L77.15 1.64ZM92.58-4.35L92.58-4.35L97.61-4.35L98.29-18.70L81.84-18.70L82.42-19.68L78.47-19.68L75.44-14.01L79.35-14.01L80.13-15.43L94.48-15.43L94.09-7.62L92.58-7.62L92.58-4.35L92.58-4.35ZM87.70-10.06L87.70-10.06L87.70-7.62L80.76-7.62L80.76-10.06L87.70-10.06L87.70-10.06Z"></path></g> <!----></g> <g fill="#fff" transform="translate(0,26.817148208618164)"><g transform="translate(0,5.110000133514404)"><path transform="translate(-0.492,3.384)" d="M0.49-3.38L0.49-2.63L3.25-2.63L3.25-3.38Z"></path></g> <g transform="translate(101.75999999046326,5.110000133514404)"><path transform="translate(-0.492,3.384)" d="M0.49-3.38L0.49-2.63L3.25-2.63L3.25-3.38Z"></path></g> <!----> <!----> <g transform="translate(5.759999990463257,0)"><path transform="translate(-0.1875,8.578125)" d="M5.67-7.13L5.63-7.13L3.66 0L2.44 0L0.19-8.58L1.41-8.58L3.05-1.59L3.09-1.59L5.02-8.58L6.28-8.58L8.20-1.59L8.25-1.59L9.84-8.58L11.11-8.58L8.86 0L7.64 0L5.67-7.13ZM13.03-4.36L13.03-4.36L12.05-4.36L12.05-4.36Q12.09-6.47 14.63-6.47L14.63-6.47L14.63-6.47Q16.88-6.38 16.92-4.69L16.92-4.69L16.92-1.08L16.92-1.08Q16.92-0.70 17.30-0.70L17.30-0.70L17.30-0.70Q17.34-0.70 17.44-0.70L17.44-0.70L17.44-0.70Q17.58-0.75 17.67-0.75L17.67-0.75L17.67 0L17.67 0Q17.58 0 17.44 0L17.44 0L17.44 0Q17.20 0.05 17.06 0.05L17.06 0.05L17.06 0.05Q15.94 0.05 15.98-0.84L15.98-0.84L15.98-0.84Q15.05 0.09 13.69 0.09L13.69 0.09L13.69 0.09Q11.81 0 11.72-1.64L11.72-1.64L11.72-1.64Q11.77-3.33 13.64-3.61L13.64-3.61L15.38-3.80L15.38-3.80Q15.94-3.89 15.94-4.55L15.94-4.55L15.94-4.55Q15.94-5.58 14.44-5.58L14.44-5.58L14.44-5.58Q13.13-5.58 13.03-4.36ZM15.89-2.16L15.89-2.16L15.89-3.19L15.89-3.19Q15.52-2.95 14.16-2.77L14.16-2.77L14.16-2.77Q12.84-2.67 12.84-1.78L12.84-1.78L12.84-1.78Q12.84-0.70 13.92-0.70L13.92-0.70L13.92-0.70Q15.75-0.84 15.89-2.16ZM21.05-6.28L21.05-5.39L20.02-5.39L20.02-1.31L20.02-1.31Q20.02-0.80 20.63-0.80L20.63-0.80L21.05-0.80L21.05 0L21.05 0Q20.77 0 20.39 0L20.39 0L20.39 0Q20.30 0 20.25 0L20.25 0L20.25 0Q18.89 0 18.94-1.22L18.94-1.22L18.94-5.39L18.14-5.39L18.14-6.28L18.94-6.28L18.94-8.02L20.02-8.02L20.02-6.28L21.05-6.28ZM26.34-1.97L26.34-1.97L27.38-1.97L27.38-1.97Q27.19-0.89 26.25-0.23L26.25-0.23L26.25-0.23Q25.73 0.09 24.56 0.09L24.56 0.09L24.56 0.09Q21.89 0 21.75-2.95L21.75-2.95L21.75-2.95Q21.84-6.38 24.75-6.47L24.75-6.47L24.75-6.47Q27.42-6.42 27.47-2.77L27.47-2.77L22.88-2.77L22.88-2.77Q22.88-0.70 24.70-0.70L24.70-0.70L24.70-0.70Q26.02-0.80 26.34-1.97ZM22.88-3.61L22.88-3.61L26.39-3.61L26.39-3.61Q26.25-5.48 24.61-5.48L24.61-5.48L24.61-5.48Q23.06-5.34 22.88-3.61ZM29.91-3.66L29.91-3.66L29.91 0L28.83 0L28.83-6.28L29.86-6.28L29.86-5.20L29.86-5.20Q30.56-6.47 31.64-6.47L31.64-6.47L31.64-6.47Q31.73-6.47 31.83-6.42L31.83-6.42L31.83-6.42Q31.88-6.42 31.92-6.42L31.92-6.42L31.92-5.30L31.50-5.30L31.50-5.30Q30-5.20 29.91-3.66ZM40.13-8.58L41.16-8.58L41.16 0L40.17 0L40.17-0.84L40.17-0.84Q39.61 0.09 38.39 0.09L38.39 0.09L38.39 0.09Q35.77 0 35.63-3.33L35.63-3.33L35.63-3.33Q35.77-6.33 38.25-6.47L38.25-6.47L38.25-6.47Q39.23-6.47 40.03-5.53L40.03-5.53L40.03-5.53Q40.08-5.44 40.13-5.39L40.13-5.39L40.13-5.44L40.13-8.58ZM36.70-3.14L36.70-3.14L36.70-3.14Q36.80-0.80 38.39-0.70L38.39-0.70L38.39-0.70Q40.08-0.89 40.13-2.81L40.13-2.81L40.13-2.81Q40.13-5.48 38.44-5.48L38.44-5.48L38.44-5.48Q36.66-5.48 36.70-3.14ZM43.83-3.66L43.83-3.66L43.83 0L42.75 0L42.75-6.28L43.78-6.28L43.78-5.20L43.78-5.20Q44.48-6.47 45.56-6.47L45.56-6.47L45.56-6.47Q45.66-6.47 45.75-6.42L45.75-6.42L45.75-6.42Q45.80-6.42 45.84-6.42L45.84-6.42L45.84-5.30L45.42-5.30L45.42-5.30Q43.92-5.20 43.83-3.66ZM46.22-3.14L46.22-3.14L46.22-3.14Q46.41-6.33 49.13-6.47L49.13-6.47L49.13-6.47Q51.84-6.33 52.03-3.14L52.03-3.14L52.03-3.14Q51.84 0 49.13 0.09L49.13 0.09L49.13 0.09Q46.41 0 46.22-3.14ZM47.30-3.14L47.30-3.14L47.30-3.14Q47.44-0.80 49.13-0.75L49.13-0.75L49.13-0.75Q50.81-0.80 50.95-3.14L50.95-3.14L50.95-3.14Q50.81-5.48 49.13-5.53L49.13-5.53L49.13-5.53Q47.44-5.48 47.30-3.14ZM54.14-2.81L54.14-2.81L54.14-2.81Q54.19-0.84 55.88-0.70L55.88-0.70L55.88-0.70Q57.52-0.75 57.56-3.14L57.56-3.14L57.56-3.14Q57.61-5.48 55.83-5.48L55.83-5.48L55.83-5.48Q54.14-5.48 54.14-2.81ZM54.19 2.39L53.16 2.39L53.16-6.28L54.14-6.28L54.14-5.39L54.19-5.39L54.19-5.39Q54.19-5.39 54.23-5.44L54.23-5.44L54.23-5.44Q54.89-6.47 56.02-6.47L56.02-6.47L56.02-6.47Q58.50-6.33 58.64-3.33L58.64-3.33L58.64-3.33Q58.50 0 55.88 0.09L55.88 0.09L55.88 0.09Q54.80 0.09 54.23-0.66L54.23-0.66L54.19-0.66L54.19 2.39ZM66.98-7.64L64.64-7.64L64.64-4.64L66.94-4.64L66.94-4.64Q68.72-4.64 68.72-6.19L68.72-6.19L68.72-6.19Q68.72-7.59 66.98-7.64L66.98-7.64ZM67.36-3.61L64.64-3.61L64.64 0L63.47 0L63.47-8.58L67.36-8.58L67.36-8.58Q69.80-8.48 69.89-6.19L69.89-6.19L69.89-6.19Q69.75-3.70 67.36-3.61L67.36-3.61ZM76.27-6.28L76.27 0L75.28 0L75.28-0.89L75.23-0.94L75.23-0.94Q74.58 0.14 73.22 0.09L73.22 0.09L73.22 0.09Q71.25 0 71.20-1.78L71.20-1.78L71.20-6.28L72.28-6.28L72.28-2.11L72.28-2.11Q72.28-0.70 73.50-0.70L73.50-0.70L73.50-0.70Q75.09-0.75 75.23-2.81L75.23-2.81L75.23-6.28L76.27-6.28ZM79.03-3.66L79.03-3.66L79.03 0L77.95 0L77.95-6.28L78.98-6.28L78.98-5.20L78.98-5.20Q79.69-6.47 80.77-6.47L80.77-6.47L80.77-6.47Q80.86-6.47 80.95-6.42L80.95-6.42L80.95-6.42Q81-6.42 81.05-6.42L81.05-6.42L81.05-5.30L80.63-5.30L80.63-5.30Q79.13-5.20 79.03-3.66ZM86.34-4.45L86.34-4.45L85.31-4.45L85.31-4.45Q85.31-5.53 83.81-5.53L83.81-5.53L83.81-5.53Q82.64-5.48 82.59-4.64L82.59-4.64L82.59-4.64Q82.50-4.03 83.72-3.80L83.72-3.80L84.80-3.56L84.80-3.56Q86.58-3.14 86.53-1.88L86.53-1.88L86.53-1.88Q86.44 0 84.09 0.09L84.09 0.09L84.09 0.09Q81.42 0.09 81.38-2.02L81.38-2.02L82.36-2.02L82.36-2.02Q82.45-0.70 84.09-0.70L84.09-0.70L84.09-0.70Q85.45-0.75 85.50-1.73L85.50-1.73L85.50-1.73Q85.59-2.30 84.28-2.63L84.28-2.63L83.02-2.91L83.02-2.91Q81.56-3.28 81.56-4.41L81.56-4.41L81.56-4.41Q81.66-6.33 83.95-6.47L83.95-6.47L83.95-6.47Q86.20-6.42 86.34-4.45ZM92.06-1.97L92.06-1.97L93.09-1.97L93.09-1.97Q92.91-0.89 91.97-0.23L91.97-0.23L91.97-0.23Q91.45 0.09 90.28 0.09L90.28 0.09L90.28 0.09Q87.61 0 87.47-2.95L87.47-2.95L87.47-2.95Q87.56-6.38 90.47-6.47L90.47-6.47L90.47-6.47Q93.14-6.42 93.19-2.77L93.19-2.77L88.59-2.77L88.59-2.77Q88.59-0.70 90.42-0.70L90.42-0.70L90.42-0.70Q91.73-0.80 92.06-1.97ZM88.59-3.61L88.59-3.61L92.11-3.61L92.11-3.61Q91.97-5.48 90.33-5.48L90.33-5.48L90.33-5.48Q88.78-5.34 88.59-3.61Z"></path></g></g></g></g></svg>